<svg width="20" height="20" viewBox="0 0 20 20" fill="none" xmlns="http://www.w3.org/2000/svg">
<mask id="mask0_716_119" style="mask-type:alpha" maskUnits="userSpaceOnUse" x="0" y="0" width="20" height="20">
<rect width="20" height="20" fill="#D9D9D9"/>
</mask>
<g mask="url(#mask0_716_119)">
<path d="M5.00004 15.8333H7.50004V11.6666C7.50004 11.4305 7.5799 11.2326 7.73962 11.0729C7.89935 10.9132 8.09726 10.8333 8.33337 10.8333H11.6667C11.9028 10.8333 12.1007 10.9132 12.2605 11.0729C12.4202 11.2326 12.5 11.4305 12.5 11.6666V15.8333H15V8.33329L10 4.58329L5.00004 8.33329V15.8333ZM3.33337 15.8333V8.33329C3.33337 8.0694 3.3924 7.8194 3.51046 7.58329C3.62851 7.34718 3.79171 7.15274 4.00004 6.99996L9.00004 3.24996C9.29171 3.02774 9.62504 2.91663 10 2.91663C10.375 2.91663 10.7084 3.02774 11 3.24996L16 6.99996C16.2084 7.15274 16.3716 7.34718 16.4896 7.58329C16.6077 7.8194 16.6667 8.0694 16.6667 8.33329V15.8333C16.6667 16.2916 16.5035 16.684 16.1771 17.0104C15.8507 17.3368 15.4584 17.5 15 17.5H11.6667C11.4306 17.5 11.2327 17.4201 11.073 17.2604C10.9132 17.1007 10.8334 16.9027 10.8334 16.6666V12.5H9.16671V16.6666C9.16671 16.9027 9.08685 17.1007 8.92712 17.2604C8.7674 17.4201 8.56949 17.5 8.33337 17.5H5.00004C4.54171 17.5 4.14935 17.3368 3.82296 17.0104C3.49657 16.684 3.33337 16.2916 3.33337 15.8333Z" fill="white"/>
</g>
</svg>
